<svg xmlns="http://www.w3.org/2000/svg" style="display:none">

<symbol id="flag-blue" viewBox="0 0 28 14">
  <path d="M0 14C0 6.26806 6.26806 0 14 0C21.7319 0 28 6.26806 28 14Z" fill="#338AF3"/>
</symbol>

<symbol id="flag-yellow" viewBox="0 0 28 28">
  <path d="M14 28C21.732 28 28 21.732 28 14C28 6.26801 21.732 0 14 0C6.26801 0 0 6.26801 0 14C0 21.732 6.26801 14 28Z" fill="#FFDA44"/>
</symbol>

<symbol id="icon-login-arrow" viewBox="0 0 12 11" fill="none">
  <path 
    d="M6.83333 1L11 5.16667M11 5.16667L6.83333 9.33333M11 5.16667L1 5.16667" 
    stroke="#F4C550" 
    stroke-width="2" 
    stroke-linecap="round" 
    stroke-linejoin="round"
  />
</symbol>

<symbol id="icon-login-door" viewBox="0 0 7 17" fill="none">
  <path 
    d="M1 1H2C3.40013 1 4.1002 1 4.63498 1.27248C5.10538 1.51217 5.48783 1.89462 5.72752 2.36502C6 2.8998 6 3.59987 6 5V12C6 13.4001 6 14.1002 5.72752 14.635C5.48783 15.1054 5.10538 15.4878 4.63498 15.7275C4.1002 16 3.40013 16 2 16H1" 
    stroke="#F4C550" 
    stroke-width="2" 
    stroke-linecap="round" 
    stroke-linejoin="round"
  />
</symbol>

<symbol id="flag-ua" viewBox="0 0 28 28">
  <!-- жовте коло -->
  <circle cx="14" cy="14" r="14" fill="#FFDA44"/>

  <!-- синя половинка зверху -->
  <path
    d="M0 14C0 6.26806 6.26806 0 14 0C21.7319 0 28 6.26806 28 14"
    fill="#338AF3"
  />
</symbol>

<symbol id="icon-close" viewBox="0 0 19 19" fill="none">
  <path
    d="M1.25 1.25L17.25 17.25"
    stroke="#121417"
    stroke-width="2.5"
    stroke-linecap="round"
    stroke-linejoin="round"
  />
  <path
    d="M17.25 1.25L1.25 17.25"
    stroke="#121417"
    stroke-width="2.5"
    stroke-linecap="round"
    stroke-linejoin="round"
  />
</symbol>

<symbol id="icon-logo-apple" viewBox="0 0 360 176">
  <defs>
    <linearGradient id="grad-background" x1="179.86" y1="0" x2="179.86" y2="247.251" gradientUnits="userSpaceOnUse">
      <stop stop-color="#EEB055" />
      <stop offset="1" stop-color="#D08F38" />
    </linearGradient>
    <linearGradient id="grad-apple" x1="179.94" y1="65.2692" x2="179.94" y2="121.053" gradientUnits="userSpaceOnUse">
      <stop stop-color="#FBE9BA" />
      <stop offset="1" stop-color="#E7C885" />
    </linearGradient>
  </defs>
  <path d="M6.41784 0C2.8733 0 0 2.87903 0 6.43046V240.821C0 244.372 2.8733 247.251 6.41784 247.251H353.302C356.847 247.251 359.72 244.372 359.72 240.821V6.43046C359.72 2.87903 356.847 0 353.302 0H6.41784Z" fill="url(#grad-background)" />
  <g fill="url(#grad-apple)">
    <path d="M191.451 66.3851C191.451 69.1751 190.452 71.78 188.461 74.1909C186.058 77.0572 183.152 78.7134 180.001 78.4521C179.961 78.1175 179.937 77.7652 179.937 77.3949C179.937 74.7168 181.08 71.8504 183.109 69.5069C184.122 68.3203 185.41 67.3338 186.973 66.5467C188.532 65.7713 190.006 65.3425 191.393 65.2692C191.411 65.4351 191.425 65.6009 191.434 65.7664C191.445 65.9733 191.451 66.1797 191.451 66.3851Z" />
    <path d="M201.999 108.742C201.172 110.691 200.194 112.485 199.06 114.134C197.515 116.383 196.249 117.939 195.274 118.803C193.762 120.222 192.142 120.949 190.408 120.99C189.163 120.99 187.661 120.628 185.913 119.895C184.159 119.165 182.548 118.803 181.074 118.803C179.529 118.803 177.871 119.165 176.098 119.895C174.322 120.628 172.892 121.011 171.798 121.049C170.135 121.121 168.477 120.374 166.822 118.803C165.766 117.863 164.445 116.252 162.862 113.969C161.164 111.531 159.768 108.704 158.675 105.481C157.503 102 156.916 98.6288 156.916 95.3651C156.916 91.6267 157.708 88.4023 159.294 85.7004C160.54 83.5299 162.198 81.818 164.273 80.5612C166.348 79.3043 168.59 78.6639 171.004 78.6229C172.325 78.6229 174.058 79.0399 176.21 79.8593C178.357 80.6816 179.736 81.0985 180.34 81.0985C180.792 81.0985 182.323 80.6111 184.919 79.6389C187.374 78.7376 189.446 78.3643 191.144 78.5113C195.743 78.89 199.198 80.7401 201.496 84.0735C197.383 86.6167 195.348 90.1788 195.389 94.7484C195.426 98.3079 196.691 101.27 199.178 103.622C200.305 104.713 201.564 105.557 202.964 106.156C202.661 107.055 202.34 107.916 201.999 108.742Z" />
  </g>
</symbol>










  <symbol id="icon-chevron-down" viewBox="0 0 12 7">
    <path
      d="M1 1L6 6L11 1"
      fill="none"
      stroke="currentColor"
      stroke-width="2"
      stroke-linecap="round"
      stroke-linejoin="round"
    />
  </symbol>

  <symbol id="icon-book-open" viewBox="0 0 18 14">
  <!-- left -->
  <path
    d="M0.75 2.88333C0.75 2.1366 0.75 1.76323 0.895325 1.47801C1.02316 1.22713 1.22713 1.02316 1.47801 0.895325C1.76323 0.75 2.1366 0.75 2.88333 0.75H3.15C4.64347 0.75 5.39021 0.75 5.96064 1.04065C6.46241 1.29631 6.87035 1.70426 7.12602 2.20603C7.41667 2.77646 7.41667 3.52319 7.41667 5.01667V12.75L7.34996 12.6499C6.88687 11.9553 6.65532 11.608 6.3494 11.3565C6.07857 11.1339 5.76651 10.9669 5.43107 10.8651C5.05217 10.75 4.63474 10.75 3.79988 10.75H2.88333C2.1366 10.75 1.76323 10.75 1.47801 10.6047C1.22713 10.4768 1.02316 10.2729 0.895325 10.022C0.75 9.73677 0.75 9.3634 0.75 8.61667V2.88333Z"
    fill="none"
    stroke="currentColor"
    stroke-width="1.5"
    stroke-linecap="round"
    stroke-linejoin="round"
  />

  <!-- right (mirror) -->
  <g transform="translate(18,0) scale(-1,1)">
    <path
      d="M0.75 2.88333C0.75 2.1366 0.75 1.76323 0.895325 1.47801C1.02316 1.22713 1.22713 1.02316 1.47801 0.895325C1.76323 0.75 2.1366 0.75 2.88333 0.75H3.15C4.64347 0.75 5.39021 0.75 5.96064 1.04065C6.46241 1.29631 6.87035 1.70426 7.12602 2.20603C7.41667 2.77646 7.41667 3.52319 7.41667 5.01667V12.75L7.34996 12.6499C6.88687 11.9553 6.65532 11.608 6.3494 11.3565C6.07857 11.1339 5.76651 10.9669 5.43107 10.8651C5.05217 10.75 4.63474 10.75 3.79988 10.75H2.88333C2.1366 10.75 1.76323 10.75 1.47801 10.6047C1.22713 10.4768 1.02316 10.2729 0.895325 10.022C0.75 9.73677 0.75 9.3634 0.75 8.61667V2.88333Z"
      fill="none"
      stroke="currentColor"
      stroke-width="1.5"
      stroke-linecap="round"
      stroke-linejoin="round"
    />
  </g>
</symbol>

  <symbol id="icon-star" viewBox="0 0 15 14">
  <path
    d="M8.88971 4.12573C9.04886 4.42725 9.33893 4.63786 9.67487 4.69604L13.4747 5.35229L10.7872 8.11987C10.5497 8.36444 10.4388 8.70526 10.4874 9.04272L11.0362 12.8601L7.57526 11.1589L7.45807 11.1091C7.21999 11.0245 6.95982 11.0245 6.72174 11.1091L6.60455 11.1589L3.14264 12.8601L3.69244 9.04272C3.74097 8.70526 3.63016 8.36444 3.39264 8.11987L0.704163 5.35229L4.50494 4.69604C4.84088 4.63786 5.13095 4.42725 5.2901 4.12573L7.0899 0.7146L8.88971 4.12573Z"
    fill="currentColor"
    stroke="currentColor"
    stroke-width="1.2"
    stroke-linejoin="round"
  />
</symbol>

<symbol id="icon-divider-vertical" viewBox="0 0 1 16">
  <path
    d="M0.5 0V16"
    fill="none"
    stroke="currentColor"
    stroke-width="1"
  />
</symbol>

<symbol id="icon-heart" viewBox="0 0 25 22">
  <path
    d="M21.8989 2.74614C21.3456 2.19257 20.6886 1.75343 19.9655 1.45382C19.2425 1.15421 18.4674 1 17.6847 1C16.902 1 16.127 1.15421 15.4039 1.45382C14.6809 1.75343 14.0239 2.19257 13.4706 2.74614L12.3222 3.89448L11.1739 2.74614C10.0562 1.62848 8.54035 1.00058 6.95973 1.00058C5.37911 1.00058 3.86323 1.62848 2.74557 2.74614C1.6279 3.86381 1 5.37969 1 6.96031C1 8.54093 1.6279 10.0568 2.74557 11.1745L3.8939 12.3228L12.3222 20.7511L20.7506 12.3228L21.8989 11.1745C22.4525 10.6212 22.8916 9.96419 23.1912 9.24111C23.4908 8.51803 23.645 7.74301 23.645 6.96031C23.645 6.17762 23.4908 5.40259 23.1912 4.67951C22.8916 3.95643 22.4525 3.29946 21.8989 2.74614Z"
    fill="none"
    stroke="currentColor"
    stroke-width="2"
    stroke-linecap="round"
    stroke-linejoin="round"
  />
</symbol>

</svg>
