<svg xmlns="http://www.w3.org/2000/svg" style="display:none">

<symbol id="flag-blue" viewBox="0 0 28 14">
  <path d="M0 14C0 6.26806 6.26806 0 14 0C21.7319 0 28 6.26806 28 14Z" fill="#338AF3"/>
</symbol>

<symbol id="flag-yellow" viewBox="0 0 28 28">
  <path d="M14 28C21.732 28 28 21.732 28 14C28 6.26801 21.732 0 14 0C6.26801 0 0 6.26801 0 14C0 21.732 6.26801 14 28Z" fill="#FFDA44"/>
</symbol>

<symbol id="icon-login-arrow" viewBox="0 0 12 11" fill="none">
  <path 
    d="M6.83333 1L11 5.16667M11 5.16667L6.83333 9.33333M11 5.16667L1 5.16667" 
    stroke="#F4C550" 
    stroke-width="2" 
    stroke-linecap="round" 
    stroke-linejoin="round"
  />
</symbol>

<symbol id="icon-login-door" viewBox="0 0 7 17" fill="none">
  <path 
    d="M1 1H2C3.40013 1 4.1002 1 4.63498 1.27248C5.10538 1.51217 5.48783 1.89462 5.72752 2.36502C6 2.8998 6 3.59987 6 5V12C6 13.4001 6 14.1002 5.72752 14.635C5.48783 15.1054 5.10538 15.4878 4.63498 15.7275C4.1002 16 3.40013 16 2 16H1" 
    stroke="#F4C550" 
    stroke-width="2" 
    stroke-linecap="round" 
    stroke-linejoin="round"
  />
</symbol>

<symbol id="flag-ua" viewBox="0 0 28 28">
  <!-- жовте коло -->
  <circle cx="14" cy="14" r="14" fill="#FFDA44"/>

  <!-- синя половинка зверху -->
  <path
    d="M0 14C0 6.26806 6.26806 0 14 0C21.7319 0 28 6.26806 28 14"
    fill="#338AF3"
  />
</symbol>

<symbol id="icon-close" viewBox="0 0 19 19" fill="none">
  <path
    d="M1.25 1.25L17.25 17.25"
    stroke="#121417"
    stroke-width="2.5"
    stroke-linecap="round"
    stroke-linejoin="round"
  />
  <path
    d="M17.25 1.25L1.25 17.25"
    stroke="#121417"
    stroke-width="2.5"
    stroke-linecap="round"
    stroke-linejoin="round"
  />
</symbol>










  <symbol id="icon-chevron-down" viewBox="0 0 12 7">
    <path
      d="M1 1L6 6L11 1"
      fill="none"
      stroke="currentColor"
      stroke-width="2"
      stroke-linecap="round"
      stroke-linejoin="round"
    />
  </symbol>

  <symbol id="icon-book-open" viewBox="0 0 18 14">
  <!-- left -->
  <path
    d="M0.75 2.88333C0.75 2.1366 0.75 1.76323 0.895325 1.47801C1.02316 1.22713 1.22713 1.02316 1.47801 0.895325C1.76323 0.75 2.1366 0.75 2.88333 0.75H3.15C4.64347 0.75 5.39021 0.75 5.96064 1.04065C6.46241 1.29631 6.87035 1.70426 7.12602 2.20603C7.41667 2.77646 7.41667 3.52319 7.41667 5.01667V12.75L7.34996 12.6499C6.88687 11.9553 6.65532 11.608 6.3494 11.3565C6.07857 11.1339 5.76651 10.9669 5.43107 10.8651C5.05217 10.75 4.63474 10.75 3.79988 10.75H2.88333C2.1366 10.75 1.76323 10.75 1.47801 10.6047C1.22713 10.4768 1.02316 10.2729 0.895325 10.022C0.75 9.73677 0.75 9.3634 0.75 8.61667V2.88333Z"
    fill="none"
    stroke="currentColor"
    stroke-width="1.5"
    stroke-linecap="round"
    stroke-linejoin="round"
  />

  <!-- right (mirror) -->
  <g transform="translate(18,0) scale(-1,1)">
    <path
      d="M0.75 2.88333C0.75 2.1366 0.75 1.76323 0.895325 1.47801C1.02316 1.22713 1.22713 1.02316 1.47801 0.895325C1.76323 0.75 2.1366 0.75 2.88333 0.75H3.15C4.64347 0.75 5.39021 0.75 5.96064 1.04065C6.46241 1.29631 6.87035 1.70426 7.12602 2.20603C7.41667 2.77646 7.41667 3.52319 7.41667 5.01667V12.75L7.34996 12.6499C6.88687 11.9553 6.65532 11.608 6.3494 11.3565C6.07857 11.1339 5.76651 10.9669 5.43107 10.8651C5.05217 10.75 4.63474 10.75 3.79988 10.75H2.88333C2.1366 10.75 1.76323 10.75 1.47801 10.6047C1.22713 10.4768 1.02316 10.2729 0.895325 10.022C0.75 9.73677 0.75 9.3634 0.75 8.61667V2.88333Z"
      fill="none"
      stroke="currentColor"
      stroke-width="1.5"
      stroke-linecap="round"
      stroke-linejoin="round"
    />
  </g>
</symbol>

  <symbol id="icon-star" viewBox="0 0 15 14">
  <path
    d="M8.88971 4.12573C9.04886 4.42725 9.33893 4.63786 9.67487 4.69604L13.4747 5.35229L10.7872 8.11987C10.5497 8.36444 10.4388 8.70526 10.4874 9.04272L11.0362 12.8601L7.57526 11.1589L7.45807 11.1091C7.21999 11.0245 6.95982 11.0245 6.72174 11.1091L6.60455 11.1589L3.14264 12.8601L3.69244 9.04272C3.74097 8.70526 3.63016 8.36444 3.39264 8.11987L0.704163 5.35229L4.50494 4.69604C4.84088 4.63786 5.13095 4.42725 5.2901 4.12573L7.0899 0.7146L8.88971 4.12573Z"
    fill="currentColor"
    stroke="currentColor"
    stroke-width="1.2"
    stroke-linejoin="round"
  />
</symbol>

<symbol id="icon-divider-vertical" viewBox="0 0 1 16">
  <path
    d="M0.5 0V16"
    fill="none"
    stroke="currentColor"
    stroke-width="1"
  />
</symbol>

<symbol id="icon-heart" viewBox="0 0 25 22">
  <path
    d="M21.8989 2.74614C21.3456 2.19257 20.6886 1.75343 19.9655 1.45382C19.2425 1.15421 18.4674 1 17.6847 1C16.902 1 16.127 1.15421 15.4039 1.45382C14.6809 1.75343 14.0239 2.19257 13.4706 2.74614L12.3222 3.89448L11.1739 2.74614C10.0562 1.62848 8.54035 1.00058 6.95973 1.00058C5.37911 1.00058 3.86323 1.62848 2.74557 2.74614C1.6279 3.86381 1 5.37969 1 6.96031C1 8.54093 1.6279 10.0568 2.74557 11.1745L3.8939 12.3228L12.3222 20.7511L20.7506 12.3228L21.8989 11.1745C22.4525 10.6212 22.8916 9.96419 23.1912 9.24111C23.4908 8.51803 23.645 7.74301 23.645 6.96031C23.645 6.17762 23.4908 5.40259 23.1912 4.67951C22.8916 3.95643 22.4525 3.29946 21.8989 2.74614Z"
    fill="none"
    stroke="currentColor"
    stroke-width="2"
    stroke-linecap="round"
    stroke-linejoin="round"
  />
</symbol>

</svg>
